<svg viewBox="0 0 600 1000" xmlns="http://www.w3.org/2000/svg">
  <defs>
    <linearGradient id="rst" x1="0" y1="0" x2="0" y2="1">
      <stop offset="0%" stop-color="#2a1a0f"/>
      <stop offset="100%" stop-color="#4a2a14"/>
    </linearGradient>
    <linearGradient id="rstPlate" x1="0" y1="0" x2="1" y2="1">
      <stop offset="0%" stop-color="#f5ecd9"/>
      <stop offset="100%" stop-color="#e0cfa8"/>
    </linearGradient>
  </defs>
  <rect width="600" height="1000" fill="url(#rst)"/>
  <g opacity="0.85">
    <rect x="0" y="0" width="600" height="14" fill="#d4a24c"/>
    <rect x="0" y="986" width="600" height="14" fill="#d4a24c"/>
  </g>
  <g transform="translate(300,340)">
    <ellipse cx="0" cy="150" rx="150" ry="26" fill="#000000" opacity="0.3"/>
    <circle cx="0" cy="0" r="120" fill="url(#rstPlate)"/>
    <circle cx="0" cy="0" r="88" fill="none" stroke="#c7ab74" stroke-width="4" opacity="0.6"/>
    <g transform="translate(-140,-90)" stroke="#e8e0d0" stroke-width="7" stroke-linecap="round" fill="none">
      <line x1="0" y1="0" x2="0" y2="160"/>
      <line x1="-14" y1="0" x2="-14" y2="40"/>
      <line x1="14" y1="0" x2="14" y2="40"/>
      <path d="M-14 40 q14 20 28 0"/>
    </g>
    <g transform="translate(140,-90)" stroke="#e8e0d0" stroke-width="7" stroke-linecap="round" fill="none">
      <line x1="0" y1="0" x2="0" y2="160"/>
      <path d="M0 0 q-16 10 0 30 q16 -10 0 -30 Z" fill="#e8e0d0" stroke="none"/>
    </g>
  </g>
  <g transform="translate(460,260)">
    <path d="M0 0 q-30 40 0 70 q30 -30 0 -70 Z" fill="#7a1f3d" opacity="0.85"/>
    <rect x="-3" y="65" width="6" height="90" fill="#c7ab74"/>
    <ellipse cx="0" cy="158" rx="26" ry="7" fill="#c7ab74" opacity="0.7"/>
  </g>
  <g fill="#d4a24c" opacity="0.6">
    <circle cx="90" cy="150" r="3"/>
    <circle cx="520" cy="200" r="3"/>
    <circle cx="60" cy="700" r="2.5"/>
    <circle cx="540" cy="760" r="3"/>
  </g>
  <rect width="600" height="1000" fill="#150a05" opacity="0.35"/>
</svg>
