<svg viewBox="0 0 600 1000" xmlns="http://www.w3.org/2000/svg">
  <defs>
    <linearGradient id="tnk" x1="0" y1="0" x2="0" y2="1">
      <stop offset="0%" stop-color="#1a1a1a"/>
      <stop offset="100%" stop-color="#33261a"/>
    </linearGradient>
    <linearGradient id="tnkBolt" x1="0" y1="0" x2="1" y2="1">
      <stop offset="0%" stop-color="#fde68a"/>
      <stop offset="100%" stop-color="#f2b134"/>
    </linearGradient>
  </defs>
  <rect width="600" height="1000" fill="url(#tnk)"/>
  <g opacity="0.85">
    <rect x="0" y="0" width="600" height="14" fill="#d94e3a"/>
    <rect x="0" y="986" width="600" height="14" fill="#d94e3a"/>
  </g>
  <g transform="translate(300,360)">
    <ellipse cx="0" cy="180" rx="150" ry="26" fill="#000000" opacity="0.3"/>
    <rect x="-70" y="-140" width="140" height="220" rx="14" fill="#e6e6e6"/>
    <rect x="-52" y="-116" width="104" height="70" rx="8" fill="#2b2b2b"/>
    <circle cx="0" cy="-81" r="8" fill="#f2b134"/>
    <rect x="-52" y="-24" width="104" height="16" rx="4" fill="#c7c9cc"/>
    <path d="M70 -100 h30 q14 0 14 14 v140 q0 20 -20 20 h-6" fill="none" stroke="#d94e3a" stroke-width="10" stroke-linecap="round"/>
    <path d="M58 -110 L30 -60 L52 -60 L20 0 L70 -55 L48 -55 Z" fill="url(#tnkBolt)"/>
  </g>
  <g fill="#d94e3a" opacity="0.55">
    <circle cx="90" cy="150" r="3"/>
    <circle cx="520" cy="200" r="3"/>
    <circle cx="60" cy="720" r="2.5"/>
    <circle cx="540" cy="770" r="3"/>
  </g>
  <rect width="600" height="1000" fill="#0a0705" opacity="0.35"/>
</svg>
